<?xml version="1.0" encoding="utf-8"?>
<!-- Generator: Adobe Illustrator 25.4.1, SVG Export Plug-In . SVG Version: 6.00 Build 0)  -->
<svg version="1.1" id="Layer_1" xmlns="http://www.w3.org/2000/svg" xmlns:xlink="http://www.w3.org/1999/xlink" x="0px" y="0px"
	 viewBox="0 0 50 50" style="enable-background:new 0 0 50 50;" xml:space="preserve">
<style type="text/css">
	.st0{fill:#FFFFFF;}
</style>
<g>
	<circle cx="25" cy="25" r="25"/>
	<g>
		<g>
			<path class="st0" d="M25,12.1c4.2,0,4.7,0.02,6.36,0.09c1.53,0.07,2.37,0.33,2.92,0.54c0.73,0.29,1.26,0.63,1.81,1.18
				c0.55,0.55,0.89,1.08,1.18,1.81c0.22,0.55,0.47,1.39,0.54,2.92C37.89,20.3,37.9,20.8,37.9,25s-0.02,4.7-0.09,6.36
				c-0.07,1.53-0.33,2.37-0.54,2.92c-0.29,0.73-0.63,1.26-1.18,1.81c-0.55,0.55-1.08,0.89-1.81,1.18c-0.55,0.22-1.39,0.47-2.92,0.54
				C29.7,37.89,29.2,37.9,25,37.9c-4.2,0-4.7-0.02-6.36-0.09c-1.53-0.07-2.37-0.33-2.92-0.54c-0.73-0.29-1.26-0.63-1.81-1.18
				c-0.55-0.55-0.89-1.08-1.18-1.81c-0.22-0.55-0.47-1.39-0.54-2.92C12.11,29.7,12.1,29.2,12.1,25s0.02-4.7,0.09-6.36
				c0.07-1.53,0.33-2.37,0.54-2.92c0.29-0.73,0.63-1.26,1.18-1.81c0.55-0.55,1.08-0.89,1.81-1.18c0.55-0.22,1.39-0.47,2.92-0.54
				C20.3,12.11,20.8,12.1,25,12.1 M25,9.26c-4.27,0-4.81,0.02-6.49,0.09c-1.68,0.08-2.82,0.34-3.82,0.73
				c-1.04,0.4-1.91,0.94-2.79,1.82c-0.88,0.88-1.41,1.75-1.82,2.79c-0.39,1-0.66,2.15-0.73,3.82C9.28,20.19,9.26,20.73,9.26,25
				c0,4.27,0.02,4.81,0.09,6.49c0.08,1.68,0.34,2.82,0.73,3.82c0.4,1.04,0.94,1.91,1.82,2.79c0.88,0.88,1.75,1.41,2.79,1.82
				c1,0.39,2.15,0.66,3.82,0.73c1.68,0.08,2.21,0.09,6.49,0.09c4.27,0,4.81-0.02,6.49-0.09c1.68-0.08,2.82-0.34,3.82-0.73
				c1.04-0.4,1.91-0.94,2.79-1.82c0.88-0.88,1.41-1.75,1.82-2.79c0.39-1,0.66-2.15,0.73-3.82c0.08-1.68,0.09-2.21,0.09-6.49
				s-0.02-4.81-0.09-6.49c-0.08-1.68-0.34-2.82-0.73-3.82c-0.4-1.04-0.94-1.91-1.82-2.79c-0.88-0.88-1.75-1.41-2.79-1.82
				c-1-0.39-2.15-0.66-3.82-0.73C29.81,9.28,29.27,9.26,25,9.26L25,9.26z"/>
			<path class="st0" d="M25,16.92c-4.46,0-8.08,3.62-8.08,8.08s3.62,8.08,8.08,8.08c4.46,0,8.08-3.62,8.08-8.08
				S29.46,16.92,25,16.92z M25,30.25c-2.9,0-5.25-2.35-5.25-5.25s2.35-5.25,5.25-5.25s5.25,2.35,5.25,5.25S27.9,30.25,25,30.25z"/>
			<circle class="st0" cx="33.4" cy="16.6" r="1.89"/>
		</g>
	</g>
</g>
</svg>
